#!OML:ASF E:\emotionWalksFemale\Project 1\Capture day 1\Session 1\Female1.ASF
:FULLY-SPECIFIED
:DEGREES
65
root 8.83517 14.6793 24.1715 181.414 4.8049 -178.747
lowerback 12.4409 1.47266 1.28905
upperback -2.39151 2.18392 0.0841838
thorax -9.52584 0.981723 -1.08327
lowerneck -6.05742 -2.95195 -7.13736
upperneck 8.46066 -3.7793 6.37597
head 3.76869 -1.75925 2.91644
rclavicle 1.36175e-014 3.85145e-015
rhumerus -37.7839 14.544 -95.8195
rradius 36.0862
rwrist 19.9679
rhand -8.3318 -48.8891
rfingers 7.12502
rthumb 17.5896 -78.1134
lclavicle 1.36175e-014 3.85145e-015
lhumerus -38.6682 -3.16066 91.0016
lradius 40.0656
lwrist -10.1973
lhand -11.9526 -37.9867
lfingers 7.12502
lthumb 14.1026 -8.48525
rfemur -21.7589 6.14907 25.7196
rtibia 46.2887
rfoot -24.8706 -20.5363
rtoes -0.623663
lfemur -24.1031 -6.35059 -19.9765
ltibia 49.5063
lfoot -30.1886 9.82818
ltoes -38.0867
66
root 8.83264 14.6637 24.1705 181.451 4.67858 -178.856
lowerback 12.4398 1.46219 1.27994
upperback -2.28697 2.16276 0.035712
thorax -9.40948 0.972519 -1.12365
lowerneck -5.94666 -2.80528 -7.10481
upperneck 8.06324 -3.76569 6.36567
head 3.62585 -1.83031 2.90571
rclavicle -9.54011e-015 7.45443e-017
rhumerus -37.6238 14.1082 -95.4589
rradius 35.5641
rwrist 20.799
rhand -8.49166 -48.4043
rfingers 7.12502
rthumb 17.4357 -77.6423
lclavicle -9.54011e-015 7.45443e-017
lhumerus -38.368 -3.24922 91.0658
lradius 41.6651
lwrist -6.21712
lhand -6.01963 -34.3652
lfingers 7.12502
lthumb 19.8135 -5.35508
rfemur -22.0673 5.97455 25.5921
rtibia 46.8251
rfoot -25.2245 -20.5913
rtoes -0.974426
lfemur -24.3734 -6.49107 -20.1053
ltibia 49.9383
lfoot -30.4619 9.83224
ltoes -37.6264
67
root 8.83366 14.6454 24.1782 181.635 4.54671 -178.767
lowerback 12.5397 1.45482 1.40247
upperback -2.32969 2.17549 0.0438281
thorax -9.50993 0.97048 -1.19071
lowerneck -5.71328 -2.78117 -7.13564
upperneck 7.74014 -3.73284 6.43351
head 3.48936 -1.81364 2.93669
rclavicle 8.57259e-016 6.08778e-015
rhumerus -37.2671 13.5989 -95.18
rradius 34.8564
rwrist 21.5304
rhand -8.61113 -48.2354
rfingers 7.12502
rthumb 17.3207 -77.4836
lclavicle 8.57259e-016 6.08778e-015
lhumerus -38.4587 -3.52954 91.1632
lradius 41.6934
lwrist -6.23545
lhand -7.37488 -34.8411
lfingers 7.12502
lthumb 18.5102 -5.70179
rfemur -22.5623 5.85421 25.681
rtibia 47.3445
rfoot -25.4528 -20.6108
rtoes -0.78456
lfemur -24.8841 -6.50019 -19.9725
ltibia 50.4059
lfoot -30.58 9.83884
ltoes -37.6814
68
root 8.83437 14.6242 24.1896 181.776 4.52637 -178.687
lowerback 12.8284 1.49555 1.45064
upperback -2.3994 2.24828 0.0889476
thorax -9.75282 1.00021 -1.19546
lowerneck -5.64815 -2.75794 -7.18954
upperneck 7.5631 -3.69441 6.49229
head 3.42471 -1.79297 2.96667
rclavicle 9.59835e-015 -1.31695e-015
rhumerus -37.47 13.4022 -94.9307
rradius 34.8428
rwrist 21.7543
rhand -8.61432 -48.4784
rfingers 7.12502
rthumb 17.3177 -77.7269
lclavicle 9.59835e-015 -1.31695e-015
lhumerus -38.4954 -3.56209 91.2619
lradius 41.764
lwrist -6.10438
lhand -7.99495 -34.8912
lfingers 7.12502
lthumb 17.9137 -5.69624
rfemur -23.0118 5.87821 25.7553
rtibia 47.8217
rfoot -25.6555 -20.5367
rtoes -0.0330344
lfemur -25.3547 -6.3837 -19.8597
ltibia 50.8819
lfoot -30.6499 9.78936
ltoes -37.8699
69
root 8.83426 14.6017 24.1992 181.898 4.45309 -178.637
lowerback 12.801 1.50502 1.43647
upperback -2.25815 2.26508 0.168864
thorax -9.58503 1.01545 -1.1015
lowerneck -5.74901 -2.73348 -7.2103
upperneck 7.30547 -3.62921 6.46914
head 3.35954 -1.75587 2.96575
rclavicle 9.46495e-015 -4.937e-015
rhumerus -37.2712 13.216 -94.6161
rradius 34.7192
rwrist 22.1058
rhand -8.66768 -48.7225
rfingers 7.12502
rthumb 17.2663 -77.9755
lclavicle 9.46495e-015 -4.937e-015
lhumerus -38.1393 -3.23616 91.3106
lradius 41.7645
lwrist -6.00834
lhand -8.06992 -34.9565
lfingers 7.12502
lthumb 17.8416 -5.75489
rfemur -23.4265 5.84083 25.7939
rtibia 48.3038
rfoot -25.8862 -20.5124
rtoes 0.0797773
lfemur -25.7836 -6.28512 -19.8114
ltibia 51.3505
lfoot -30.7982 9.89757
ltoes -38.6578
70
root 8.83537 14.5806 24.2116 182.109 4.18664 -178.628
lowerback 12.4049 1.4374 1.45396
upperback -1.99783 2.1705 0.190764
thorax -9.07295 0.979208 -1.05088
lowerneck -5.76177 -2.73707 -7.20574
upperneck 6.85275 -3.60405 6.49171
head 3.22441 -1.73666 2.97398
rclavicle 2.35389e-014 5.05658e-015
rhumerus -36.7461 12.957 -94.3438
rradius 34.5028
rwrist 22.5827
rhand -8.65475 -48.9461
rfingers 7.12502
rthumb 17.2788 -78.198
lclavicle 2.35389e-014 5.05658e-015
lhumerus -37.5563 -2.96267 91.2355
lradius 41.6768
lwrist -5.81152
lhand -8.07275 -35.0643
lfingers 7.12502
lthumb 17.8388 -5.86252
rfemur -23.9393 5.58328 25.7954
rtibia 48.7721
rfoot -26.0017 -20.5861
rtoes -0.401891
lfemur -26.3332 -6.33947 -19.7841
ltibia 51.7709
lfoot -30.9346 10.029
ltoes -39.646
